Coordinates
version=1
nRows=18
nColumns=26
inDegrees=yes

Units are S.I. units (second, meters, Newtons, ...)
Angles are in degrees.

endheader
time	pelvis_tilt	pelvis_list	pelvis_rotation	pelvis_tx	pelvis_ty	pelvis_tz	hip_flexion_r	hip_adduction_r	hip_rotation_r	knee_angle_r	knee_angle_r_beta	ankle_angle_r	subtalar_angle_r	mtp_angle_r	hip_flexion_l	hip_adduction_l	hip_rotation_l	knee_angle_l	knee_angle_l_beta	ankle_angle_l	subtalar_angle_l	mtp_angle_l	lumbar_extension	lumbar_bending	lumbar_rotation
    231.45023590	     -5.81911203	      2.41602994	     -4.94237856	      0.41047673	      0.89097894	      0.22679240	     30.14158735	      5.01538756	      5.46975915	     18.86400265	     18.86400265	      2.94889895	     -3.63901566	      0.00000000	     -4.15659300	      5.67760899	     -0.63704993	     68.83421549	     68.83421549	    -31.53273688	    -16.95957901	      0.00000000	     -7.91861408	     -3.66397413	      4.35726780
    231.46023590	     -5.62317892	      2.29341387	     -5.55227477	      0.40910810	      0.88373822	      0.22752058	     30.26000628	      5.45912519	      4.77850802	     22.53383830	     22.53383830	     -1.89288012	     -8.98550728	      0.00000000	     -1.88545128	      4.28423816	     -2.87000810	     74.24809520	     74.24809520	    -31.52167902	    -20.12660799	      0.00000000	     -8.45043748	     -3.44184331	      5.17097431
    231.47023590	     -5.45887413	      1.65397768	     -6.34208543	      0.40693041	      0.87582560	      0.22924315	     30.39785053	      6.93413421	      5.37257106	     27.27304298	     27.27304298	     -0.04589900	    -12.28212627	      0.00000000	      0.52388570	      2.00875337	     -5.00848378	     79.61618871	     79.61618871	    -30.30459003	    -22.34746662	      0.00000000	     -9.10249528	     -2.63861594	      6.33080974
    231.48023590	     -5.65601994	      1.25973691	     -7.01680274	      0.40370137	      0.86662895	      0.23051063	     31.64055947	      8.10501265	      5.27465529	     33.85021246	     33.85021246	      5.57814101	    -12.62541286	      0.00000000	      3.67862290	     -0.01538852	     -6.48147422	     84.97390552	     84.97390552	    -28.15553950	    -23.20373335	      0.00000000	     -9.49127385	     -2.06667251	      7.29600419
    231.49023590	     -5.85041144	      1.10874893	     -7.51164083	      0.39976593	      0.85738196	      0.23094324	     32.97170512	      8.70186453	      5.25613642	     40.17059413	     40.17059413	      8.94932647	    -14.17985778	      0.00000000	      7.17191941	     -1.53926585	     -7.18984396	     89.97830709	     89.97830709	    -26.13433746	    -23.35934229	      0.00000000	    -10.07133989	     -1.77677561	      7.87931313
    231.50023590	     -6.32400788	      0.91717682	     -7.98679569	      0.39515882	      0.84906675	      0.23140310	     33.94839872	      9.23262672	      5.60143563	     45.26215398	     45.26215398	     12.31898634	    -14.13782370	      0.00000000	     11.29883870	     -3.05078053	     -7.42180408	     94.45038096	     94.45038096	    -24.47640638	    -22.87931132	      0.00000000	    -10.46783987	     -1.45991601	      8.44363844
    231.51023590	     -7.34472103	      0.94619819	     -8.60737520	      0.39067269	      0.84150385	      0.23154644	     34.74503222	      9.44127663	      5.87132696	     49.15903314	     49.15903314	     16.16881119	    -12.51886720	      0.00000000	     16.27489061	     -4.27670948	     -7.48074941	     98.26730525	     98.26730525	    -22.77731246	    -21.67974099	      0.00000000	    -10.10939766	     -1.23104437	      9.28149337
    231.52023590	     -8.90566189	      0.62861486	     -8.99268496	      0.38679022	      0.83470664	      0.23157232	     35.21839776	      9.97983819	      5.92073216	     51.51372559	     51.51372559	     19.10572484	    -11.83063734	      0.00000000	     21.95558457	     -5.82014680	     -6.90105358	    101.40701723	    101.40701723	    -21.23459305	    -20.25599555	      0.00000000	     -8.95935596	     -0.48522134	     10.28250036
    231.53023590	     -9.94564883	     -0.23389942	     -8.84928421	      0.38425241	      0.83035342	      0.23142038	     34.20373335	     10.74497251	      5.71067930	     52.41009471	     52.41009471	     21.40818959	    -11.87239427	      0.00000000	     26.97054952	     -7.50842212	     -5.42703121	    103.62580234	    103.62580234	    -19.01387131	    -18.62054391	      0.00000000	     -8.23338056	      0.77379790	     11.04035847
    231.54023590	     -9.90075392	     -1.11300946	     -8.22981776	      0.38346149	      0.82935837	      0.23069817	     31.32606995	     11.14124075	      5.58265672	     52.26293090	     52.26293090	     23.29289362	    -12.04680548	      0.00000000	     30.58454308	     -8.43053479	     -3.58665936	    104.61352856	    104.61352856	    -17.00512114	    -18.06135980	      0.00000000	     -8.45127933	      1.86083544	     11.50528760
    231.55023590	     -9.21691674	     -1.62082219	     -7.38512833	      0.38393107	      0.83074400	      0.22973153	     27.37276158	     10.97707023	      5.57043959	     51.43987034	     51.43987034	     24.66825233	    -11.95538191	      0.00000000	     33.17874382	     -8.51963195	     -2.06493036	    104.45983443	    104.45983443	    -15.29877921	    -18.82705158	      0.00000000	     -9.11216135	      2.35400126	     11.85988681
    231.56023590	     -9.29499922	     -1.35417946	     -6.71787216	      0.38437391	      0.83220693	      0.22917725	     24.13842728	     10.31087547	      6.07495640	     50.19079220	     50.19079220	     25.24523228	    -12.00625594	      0.00000000	     36.44849186	     -7.87103494	     -1.24149955	    103.52692086	    103.52692086	    -14.24449987	    -19.48576894	      0.00000000	     -8.64970433	      1.82106050	     12.73385809
    231.57023590	     -8.06949295	     -1.26873825	     -5.60964009	      0.38661189	      0.83724397	      0.22826661	     18.71599486	      9.41878667	      5.98299344	     47.46539360	     47.46539360	     25.65702104	    -12.00588775	      0.00000000	     37.62528893	     -7.03448560	     -0.51228961	    101.43958442	    101.43958442	    -12.07271672	    -20.46042592	      0.00000000	     -9.64967336	      1.33308078	     12.70125040
    231.58023590	     -8.25107110	     -0.67928032	     -4.74652800	      0.38815371	      0.84145289	      0.22754677	     14.89140420	      8.26934526	      6.19037210	     44.52570838	     44.52570838	     24.64148990	    -11.91678115	      0.00000000	     40.14504531	     -5.82324702	     -0.28231855	     98.71061743	     98.71061743	    -11.03737171	    -21.35101192	      0.00000000	     -8.86432797	      0.33456913	     13.08149633
    231.59023590	     -9.34399480	     -0.15687839	     -4.14167440	      0.38964388	      0.84528012	      0.22719377	     11.98572640	      7.28446117	      6.44095003	     41.22600989	     41.22600989	     23.17273702	    -10.89932383	      0.00000000	     43.33165069	     -4.93860089	     -0.36206629	     95.39040880	     95.39040880	    -10.36315280	    -21.65927004	      0.00000000	     -6.86733279	     -0.53644489	     13.93766142
    231.60023590	     -8.87691513	      0.63618238	     -3.23458680	      0.39285620	      0.85260607	      0.22655743	      6.77349577	      5.91057933	      6.67164533	     36.44992126	     36.44992126	     19.28392747	    -12.03670217	      0.00000000	     43.93907968	     -3.41753748	     -0.68229139	     90.83173926	     90.83173926	    -10.52166012	    -22.93373412	      0.00000000	     -6.65720767	     -1.85474743	     13.97771703
    231.61023590	     -9.35214502	      1.46651311	     -2.50323354	      0.39577865	      0.85875561	      0.22596700	      2.98657829	      4.53656582	      6.58429779	     32.13039747	     32.13039747	     14.87671619	    -12.09371285	      0.00000000	     45.25153876	     -1.95917803	     -1.02760310	     85.87426362	     85.87426362	     -9.68154584	    -22.94286616	      0.00000000	     -5.37036194	     -3.10958939	     14.18309422
    231.62023590	     -9.88075341	      2.28243180	     -1.79606936	      0.39893870	      0.86495980	      0.22557582	     -0.51317866	      3.20453420	      6.06151973	     27.91941549	     27.91941549	      9.55310149	    -11.90674890	      0.00000000	     46.19213731	     -0.62900130	     -1.56930915	     80.26405018	     80.26405018	     -8.31280520	    -22.35524967	      0.00000000	     -4.05726246	     -4.38929772	     14.68477437
